<?xml version="1.0" encoding="UTF-8"?>
<svg xmlns="http://www.w3.org/2000/svg" viewBox="0 0 144 144" width="144px" height="144px">
<g id="surface19487954">
<path style=" stroke:none;fill-rule:nonzero;fill:rgb(100%,100%,100%);fill-opacity:1;" d="M 37.5 18 C 26.785156 18 18 26.785156 18 37.5 L 18 106.5 C 18 117.214844 26.785156 126 37.5 126 L 106.5 126 C 117.214844 126 126 117.214844 126 106.5 L 126 37.5 C 126 26.785156 117.214844 18 106.5 18 Z M 37.5 27 L 106.5 27 C 112.351562 27 117 31.648438 117 37.5 L 117 42 L 27 42 L 27 37.5 C 27 31.648438 31.648438 27 37.5 27 Z M 27 51 L 117 51 L 117 106.5 C 117 112.351562 112.351562 117 106.5 117 L 37.5 117 C 31.648438 117 27 112.351562 27 106.5 Z M 84 62.25 C 76.515625 62.25 70.226562 67.808594 69.164062 75.050781 C 68.871094 76.671875 69.484375 78.320312 70.761719 79.355469 C 72.039062 80.386719 73.777344 80.644531 75.300781 80.019531 C 76.820312 79.398438 77.878906 77.992188 78.0625 76.359375 C 78.488281 73.46875 80.9375 71.25 84 71.25 C 87.367188 71.25 90 73.882812 90 77.25 C 90 79.652344 89.113281 80.691406 87.5 81.9375 C 85.882812 83.183594 83.796875 83.972656 81.816406 84.996094 C 81.210938 85.308594 77.972656 86.359375 74.964844 88.601562 C 71.957031 90.839844 69 95.007812 69 100.5 C 69 102.984375 71.015625 105 73.5 105 L 94.5 105 C 96.121094 105.023438 97.632812 104.171875 98.449219 102.769531 C 99.269531 101.367188 99.269531 99.632812 98.449219 98.230469 C 97.632812 96.828125 96.121094 95.976562 94.5 96 L 80.15625 96 C 80.230469 95.941406 80.261719 95.875 80.339844 95.820312 C 81.824219 94.710938 83.777344 94.109375 85.9375 92.996094 C 86.785156 92.558594 90.007812 91.375 93 89.0625 C 95.992188 86.75 99 82.648438 99 77.25 C 99 69.019531 92.230469 62.25 84 62.25 Z M 55.125 63.015625 C 54.773438 63.046875 54.417969 63.113281 54.074219 63.226562 L 45.074219 66.226562 C 42.71875 67.015625 41.441406 69.566406 42.226562 71.921875 C 43.015625 74.28125 45.570312 75.566406 47.921875 74.769531 L 51 73.738281 L 51 100.5 C 51 102.988281 53.011719 105 55.5 105 C 57.988281 105 60 102.988281 60 100.5 L 60 67.5 C 60 66.054688 59.304688 64.695312 58.128906 63.847656 C 57.25 63.214844 56.183594 62.929688 55.125 63.015625 Z M 55.125 63.015625 "/>
</g>
</svg>
