<?xml version="1.0" encoding="UTF-8"?>
<svg xmlns="http://www.w3.org/2000/svg" viewBox="0 0 144 144" width="144px" height="144px">
<g id="surface19489508">
<path style=" stroke:none;fill-rule:nonzero;fill:rgb(100%,100%,100%);fill-opacity:1;" d="M 25.5 24 C 18.097656 24 12 30.097656 12 37.5 L 12 109.21875 L 12.046875 109.21875 C 11.960938 114.832031 16.523438 120 22.507812 120 L 109.640625 120 C 115.25 120 120.308594 116.5 122.28125 111.246094 L 137.304688 71.25 L 137.304688 71.238281 C 139.871094 64.503906 134.703125 57 127.496094 57 L 126 57 L 126 52.5 C 126 45.097656 119.902344 39 112.5 39 L 72.128906 39 L 58.722656 27.824219 C 58.722656 27.824219 58.71875 27.824219 58.714844 27.824219 C 55.753906 25.355469 52.015625 24 48.15625 24 Z M 25.5 33 L 48.15625 33 C 49.914062 33 51.609375 33.617188 52.957031 34.742188 L 67.617188 46.957031 C 68.425781 47.632812 69.445312 48 70.5 48 L 112.5 48 C 115.039062 48 117 49.960938 117 52.5 L 117 57 L 40.359375 57 C 34.75 57 29.691406 60.5 27.722656 65.753906 L 21 83.648438 L 21 37.5 C 21 34.960938 22.960938 33 25.5 33 Z M 40.359375 66 L 127.496094 66 C 128.695312 66 129.324219 66.914062 128.894531 68.03125 C 128.890625 68.042969 128.886719 68.050781 128.882812 68.0625 L 113.855469 108.082031 C 113.191406 109.847656 111.53125 111 109.640625 111 L 22.507812 111 C 21.3125 111 20.679688 110.089844 21.097656 108.976562 C 21.101562 108.976562 21.105469 108.976562 21.105469 108.972656 L 36.148438 68.917969 C 36.808594 67.152344 38.46875 66 40.359375 66 Z M 40.359375 66 "/>
</g>
</svg>
